<?xml version="1.0" encoding="UTF-8"?>
<svg version="1.1" xmlns="http://www.w3.org/2000/svg" width="320" height="320">
<path d="M0 0 C22.08691481 57.20944014 5.81218895 122.02911079 -42.07421875 161.2578125 C-92.22118242 199.84727924 -157.49068149 202.29787901 -210.25 167.125 C-262.19300788 128.61552864 -282.7514469 65.6293407 -262.25 4.125 C-215.93285096 -113.03014168 -49.2537671 -118.60741709 0 0 Z " fill="#FBF236" transform="translate(289.25,107.875)"/>
<path d="M0 0 C14.93852729 -0.2278517 22.31037083 0.57485162 32.7578125 11.3125 C38.25516216 11.86908883 38.25516216 11.86908883 43.8203125 11.125 C53.27421745 11.04499516 53.27421745 11.04499516 55.46875 16.796875 C55.88072323 26.93994004 55.88072323 26.93994004 53.7578125 32.3125 C50.4578125 32.3125 47.1578125 32.3125 43.7578125 32.3125 C43.7578125 35.6125 43.7578125 38.9125 43.7578125 42.3125 C34.97782274 42.93964213 26.73409347 42.51360007 17.9765625 41.921875 C11.9570811 41.5598999 11.9570811 41.5598999 3.7578125 42.3125 C3.7578125 45.6125 3.7578125 48.9125 3.7578125 52.3125 C0.4578125 52.3125 -2.8421875 52.3125 -6.2421875 52.3125 C-6.27519173 57.29613879 -6.27469081 62.28576372 -5.99609375 67.26171875 C-6.34822706 74.48883582 -9.54724786 77.19948804 -15.2421875 81.3125 C-12.2721875 81.6425 -9.3021875 81.9725 -6.2421875 82.3125 C-6.2421875 85.6125 -6.2421875 88.9125 -6.2421875 92.3125 C-0.41430454 93.55391862 -0.41430454 93.55391862 6.8828125 92.9375 C9.58984375 92.86015625 12.296875 92.7828125 15.0859375 92.703125 C19.37851563 92.50976562 19.37851563 92.50976562 23.7578125 92.3125 C29.38096725 92.05920474 35.00625188 91.84825887 40.6328125 91.6875 C43.14648438 91.57148437 45.66015625 91.45546875 48.25 91.3359375 C50.06757813 91.65820312 51.88515625 91.98046875 53.7578125 92.3125 C53.7578125 95.6125 53.7578125 98.9125 53.7578125 102.3125 C56.9546875 102.003125 60.1515625 101.69375 63.4453125 101.375 C72.96391611 100.90244521 72.96391611 100.90244521 76.375 106.9609375 C79.65845321 121.24839607 81.89437042 139.43057028 73.7578125 152.3125 C53.32792776 161.11703962 20.34954669 159.07817143 4.7578125 143.3125 C-3.82896738 141.39709784 -12.52426289 141.68982676 -21.3046875 141.625 C-23.69654297 141.53412109 -26.08839844 141.44324219 -28.55273438 141.34960938 C-30.81310547 141.31287109 -33.07347656 141.27613281 -35.40234375 141.23828125 C-37.48168213 141.20130127 -39.56102051 141.16432129 -41.70336914 141.1262207 C-43.95008423 141.71342896 -43.95008423 141.71342896 -46.2421875 142.3125 C-46.2421875 145.6125 -46.2421875 148.9125 -46.2421875 152.3125 C-49.5421875 152.3125 -52.8421875 152.3125 -56.2421875 152.3125 C-56.2421875 155.6125 -56.2421875 158.9125 -56.2421875 162.3125 C-70.11972525 167.66421004 -92.45160267 167.93831029 -106.2421875 162.3125 C-113.15944049 148.16918809 -112.22627623 136.71584291 -106.2421875 122.3125 C-91.04236636 115.42324217 -78.19467802 119.95436168 -67.2421875 131.3125 C-56.13039504 133.69531759 -43.43882907 134.12059576 -37.2421875 123.3125 C-37.1184375 121.3325 -36.9946875 119.3525 -36.8671875 117.3125 C-36.6609375 115.6625 -36.4546875 114.0125 -36.2421875 112.3125 C-32.9421875 112.3125 -29.6421875 112.3125 -26.2421875 112.3125 C-24.63112708 107.80228919 -24.63112708 107.80228919 -24.9921875 102.3125 C-24.96640625 100.45625 -24.940625 98.6 -24.9140625 96.6875 C-25.35234375 95.24375 -25.790625 93.8 -26.2421875 92.3125 C-29.5421875 92.3125 -32.8421875 92.3125 -36.2421875 92.3125 C-36.2421875 89.0125 -36.2421875 85.7125 -36.2421875 82.3125 C-43.18585522 81.81652373 -49.34487019 81.84646505 -56.2421875 82.3125 C-63.13950481 82.77853495 -69.29851978 82.80847627 -76.2421875 82.3125 C-76.2421875 79.0125 -76.2421875 75.7125 -76.2421875 72.3125 C-79.5421875 72.3125 -82.8421875 72.3125 -86.2421875 72.3125 C-87.5703125 65.75 -87.5703125 65.75 -87.4921875 57.3125 C-87.51796875 54.528125 -87.54375 51.74375 -87.5703125 48.875 C-87.13203125 46.709375 -86.69375 44.54375 -86.2421875 42.3125 C-82.9421875 42.3125 -79.6421875 42.3125 -76.2421875 42.3125 C-76.2421875 39.0125 -76.2421875 35.7125 -76.2421875 32.3125 C-72.9421875 32.3125 -69.6421875 32.3125 -66.2421875 32.3125 C-66.2421875 29.0125 -66.2421875 25.7125 -66.2421875 22.3125 C-48.37085971 20.06378988 -48.37085971 20.06378988 -42.0859375 26.703125 C-32.69728791 35.63748509 -18.23715577 36.18044267 -6.2421875 32.3125 C-5.06703963 24.24757389 -6.20563543 17.14299496 -7.109375 9.0625 C-6.2421875 2.3125 -6.2421875 2.3125 0 0 Z " fill="#3F3F74" transform="translate(175.2421875,30.6875)"/>
<path d="M0 0 C12.89194941 -2.20673008 16.85048982 0.5911543 24 11 C54.51148441 43.26501799 97.30446537 53.56287544 138 35 C154.72983229 26.13461879 167.61589924 15.17880101 179 0 C186.875 -1 186.875 -1 194 0 C194 13.77906984 185.18182285 21.40551096 176 31 C174.659375 32.423125 173.31875 33.84625 171.9375 35.3125 C136.52840035 68.47340285 81.02031797 70.02786081 39.6875 48.125 C23.28040592 38.00473636 0 20.85349083 0 0 Z " fill="#3F3F74" transform="translate(62,224)"/>
<path d="M0 0 C2.86171875 0.12246094 5.7234375 0.24492187 8.671875 0.37109375 C11.53359375 0.37753906 14.3953125 0.38398438 17.34375 0.390625 C32.90066165 0.72398739 32.90066165 0.72398739 38.671875 2.24609375 C38.671875 5.54609375 38.671875 8.84609375 38.671875 12.24609375 C43.29039762 12.29961131 43.29039762 12.29961131 48.671875 10.99609375 C57.14582857 10.38159385 58.0692255 10.80109496 61.44140625 18.88671875 C62.6202662 28.33525919 62.99506104 33.68439236 58.671875 42.24609375 C45.0996148 45.77034936 23.73425732 48.43390467 13.140625 37.62109375 C5.15007273 29.79817545 -6.9701446 32.60647529 -17.54882812 33.04101562 C-22.89453125 33.125 -22.89453125 33.125 -31.328125 32.24609375 C-31.328125 28.94609375 -31.328125 25.64609375 -31.328125 22.24609375 C-28.028125 22.24609375 -24.728125 22.24609375 -21.328125 22.24609375 C-21.740625 18.98476562 -22.153125 15.7234375 -22.578125 12.36328125 C-23.31141492 -2.47274527 -12.08021831 -0.08628727 0 0 Z " fill="#FBF236" transform="translate(180.328125,130.75390625)"/>
<path d="M0 0 C7 6 7 6 10 9 C15.06402018 8.83264207 20.12649844 8.61701695 25.1875 8.375 C39.28718643 8.63013718 39.28718643 8.63013718 42.296875 14.4140625 C42.58641739 25.91532957 40.81780236 33.26295631 31 40 C23.6519787 40.91813832 17.25950638 41.30547542 9.9375 41.1875 C7.06514648 41.25227539 7.06514648 41.25227539 4.13476562 41.31835938 C-1.34765625 41.29296875 -1.34765625 41.29296875 -10 40 C-10 36.7 -10 33.4 -10 30 C-13.3 30 -16.6 30 -20 30 C-20 26.7 -20 23.4 -20 20 C-16.7 20 -13.4 20 -10 20 C-10 16.7 -10 13.4 -10 10 C-6.7 10 -3.4 10 0 10 C0 6.7 0 3.4 0 0 Z " fill="#FBF236" transform="translate(119,63)"/>
<path d="M0 0 C7.24380299 2.16567306 9.85887861 5.46229773 15.0625 10.8125 C16.898125 10.956875 18.73375 11.10125 20.625 11.25 C22.089375 11.435625 23.55375 11.62125 25.0625 11.8125 C25.0625 15.1125 25.0625 18.4125 25.0625 21.8125 C14.96133184 24.39791804 5.1689558 24.33764584 -4.9375 21.8125 C-9.12336681 13.9081538 -9.19264061 3.37451364 0 0 Z " fill="#FBF236" transform="translate(83.9375,161.1875)"/>
<path d="M0 0 C2.31 2.31 4.62 4.62 7 7 C8.794375 7.103125 10.58875 7.20625 12.4375 7.3125 C13.943125 7.539375 15.44875 7.76625 17 8 C17 11.3 17 14.6 17 18 C10.4375 19.36328125 10.4375 19.36328125 2 19.3125 C-0.784375 19.34988281 -3.56875 19.38726562 -6.4375 19.42578125 C-13 18 -13 18 -14.203125 12.75 C-12.70525798 5.59136282 -8.2471717 -4.12358585 0 0 Z " fill="#FBF236" transform="translate(192,45)"/>
</svg>
