<?xml version="1.0" standalone="no"?>
<!DOCTYPE svg PUBLIC "-//W3C//DTD SVG 20010904//EN"
 "http://www.w3.org/TR/2001/REC-SVG-20010904/DTD/svg10.dtd">
<svg version="1.0" xmlns="http://www.w3.org/2000/svg"
 width="320.000000pt" height="320.000000pt" viewBox="0 0 320.000000 320.000000"
 preserveAspectRatio="xMidYMid meet">
<metadata>
Created by potrace 1.14, written by Peter Selinger 2001-2017
</metadata>
<g transform="translate(0.000000,320.000000) scale(0.100000,-0.100000)"
fill="#000000" stroke="none">
<path d="M1690 2720 l0 -150 -153 0 -153 0 -49 50 -49 50 -98 0 -98 0 0 -50 0
-50 -50 0 -50 0 0 -50 0 -50 -50 0 -50 0 0 -150 0 -150 50 0 50 0 0 -50 0 -50
200 0 200 0 0 -50 0 -50 50 0 50 0 0 -100 0 -100 -50 0 -50 0 0 -53 c0 -50 -3
-55 -48 -100 l-48 -47 -105 0 -105 0 -49 50 -49 50 -148 0 -148 0 0 -200 0
-200 250 0 250 0 0 50 0 50 50 0 50 0 0 50 0 50 253 0 253 0 49 -50 49 -50
298 0 298 0 0 250 0 250 -100 0 -100 0 0 50 0 50 -300 0 -300 0 0 50 0 50 -52
0 -52 0 52 53 52 53 0 97 0 97 50 0 50 0 0 50 0 50 200 0 200 0 0 50 0 50 50
0 50 0 0 100 0 100 -103 0 -103 0 -49 50 -49 50 -148 0 -148 0 0 -150z m255 0
c45 -46 53 -50 97 -50 l48 0 0 -50 0 -50 -150 0 -150 0 0 52 c0 49 3 55 47
100 26 26 50 48 53 48 3 0 28 -22 55 -50z m-502 -250 l147 0 0 -102 0 -102
-47 -48 -47 -48 -203 0 -203 0 0 50 0 50 -50 0 -50 0 0 50 0 50 50 0 50 0 0
50 0 50 50 0 50 0 0 52 0 52 53 -52 53 -52 147 0z m747 -650 l0 -50 100 0 100
0 0 -150 0 -150 -203 0 -203 0 -49 50 -49 50 -198 0 -198 0 0 50 0 50 50 0 50
0 0 100 0 100 300 0 300 0 0 -50z m-1245 -300 c45 -46 53 -50 97 -50 l48 0 0
-50 0 -50 -150 0 -150 0 0 100 0 100 53 0 c50 0 55 -3 102 -50z"/>
<path d="M620 922 c0 -72 152 -262 300 -374 88 -68 245 -142 365 -175 93 -25
114 -27 305 -27 191 0 212 2 305 27 120 33 277 107 365 175 148 112 300 302
300 374 l0 38 -74 0 -74 0 -36 -48 c-48 -66 -178 -188 -249 -235 -88 -58 -217
-115 -325 -144 -136 -36 -288 -36 -424 0 -108 29 -237 86 -325 144 -71 47
-201 169 -249 235 l-36 48 -74 0 -74 0 0 -38z"/>
</g>
</svg>
